<svg id="Layer_1" data-name="Layer 1" xmlns="http://www.w3.org/2000/svg" viewBox="0 0 220.15 58.29"><defs><style>.cls-1{fill:#051c3d;}.cls-2{fill:#838f9f;}</style></defs><path class="cls-1" d="M6.67,28.57h9.68V9.93l.7,0H36.43a6.25,6.25,0,0,1,6.24,6.25q0,13.94,0,27.85a8.12,8.12,0,0,1-8.13,8.09h-10a8.09,8.09,0,0,1-8.11-8c0-3.27,0-6.54,0-9.81v-.79H6.67Zm19,4.89H20.86v9.75a4.46,4.46,0,0,0,4.38,4.4h8.54a4.49,4.49,0,0,0,4.41-4.39q0-12.22,0-24.44a4.48,4.48,0,0,0-4.41-4.39H21.53l-.63,0V28.59h4.8Z"/><path class="cls-1" d="M49.62,22.91a.38.38,0,0,1-.38-.38V12.28a.38.38,0,0,1,.11-.28.36.36,0,0,1,.27-.11h3.84a6.28,6.28,0,0,1,2.63.48,3.41,3.41,0,0,1,1.55,1.45,4.86,4.86,0,0,1,.55,2.35q0,.69,0,1.23c0,.35,0,.76,0,1.21A5.34,5.34,0,0,1,57.65,21a3.12,3.12,0,0,1-1.52,1.41,6.21,6.21,0,0,1-2.59.47Zm1.81-1.81h2a3.65,3.65,0,0,0,1.44-.25,1.66,1.66,0,0,0,.81-.82A3.71,3.71,0,0,0,56,18.56c0-.31,0-.59,0-.82V17q0-.36,0-.81a2.7,2.7,0,0,0-.64-1.91,2.67,2.67,0,0,0-2-.61h-2Z"/><path class="cls-1" d="M60.11,22.91a.3.3,0,0,1-.23-.1.3.3,0,0,1-.11-.23.27.27,0,0,1,0-.14L63.6,12.28a.57.57,0,0,1,.18-.28.58.58,0,0,1,.37-.11h1.72a.53.53,0,0,1,.36.11.77.77,0,0,1,.19.28l3.79,10.16a.78.78,0,0,1,0,.14.32.32,0,0,1-.09.23.3.3,0,0,1-.23.1H68.55a.5.5,0,0,1-.33-.1.52.52,0,0,1-.13-.2l-.74-1.92H62.67l-.74,1.92a.52.52,0,0,1-.13.2.49.49,0,0,1-.32.1Zm3.11-4H66.8L65,14Z"/><path class="cls-2" d="M74,22.91a.38.38,0,0,1-.38-.38V13.82H70.71a.35.35,0,0,1-.27-.11.37.37,0,0,1-.11-.27V12.28a.38.38,0,0,1,.11-.28.35.35,0,0,1,.27-.11h8a.38.38,0,0,1,.39.39v1.16a.33.33,0,0,1-.11.27.34.34,0,0,1-.28.11h-2.9v8.71a.36.36,0,0,1-.11.27.39.39,0,0,1-.28.11Z"/><path class="cls-2" d="M79.54,22.91a.32.32,0,0,1-.23-.1.33.33,0,0,1-.1-.23.39.39,0,0,1,0-.14L83,12.28a.57.57,0,0,1,.18-.28.58.58,0,0,1,.37-.11h1.72a.57.57,0,0,1,.36.11.92.92,0,0,1,.19.28l3.79,10.16a.78.78,0,0,1,0,.14.29.29,0,0,1-.1.23.27.27,0,0,1-.22.1H88a.49.49,0,0,1-.32-.1.52.52,0,0,1-.13-.2l-.74-1.92H82.11l-.74,1.92a.67.67,0,0,1-.13.2.5.5,0,0,1-.33.1Zm3.12-4h3.57L84.44,14Z"/><path class="cls-1" d="M49.41,35.75a.36.36,0,0,1-.27-.1.38.38,0,0,1-.11-.26v-9.8a.37.37,0,0,1,.11-.27.36.36,0,0,1,.27-.1H50.6a.38.38,0,0,1,.31.11.8.8,0,0,1,.14.17L54,30.92l2.94-5.42a.69.69,0,0,1,.13-.17.4.4,0,0,1,.32-.11h1.17a.36.36,0,0,1,.27.1.37.37,0,0,1,.11.27v9.8a.38.38,0,0,1-.11.26.36.36,0,0,1-.27.1H57.25a.36.36,0,0,1-.27-.1.41.41,0,0,1-.09-.26V28.87l-2.11,4a.74.74,0,0,1-.2.23.45.45,0,0,1-.31.1h-.62a.44.44,0,0,1-.32-.1.71.71,0,0,1-.19-.23l-2.11-4v6.52a.37.37,0,0,1-.1.26.35.35,0,0,1-.26.1Z"/><path class="cls-1" d="M60.69,35.75a.31.31,0,0,1-.22-.09.29.29,0,0,1-.1-.23.35.35,0,0,1,0-.13L64,25.59a.5.5,0,0,1,.17-.26.48.48,0,0,1,.35-.11h1.64a.48.48,0,0,1,.35.11.68.68,0,0,1,.18.26l3.63,9.71a.62.62,0,0,1,0,.13.32.32,0,0,1-.09.23.29.29,0,0,1-.21.09H68.75a.41.41,0,0,1-.31-.1.72.72,0,0,1-.13-.19l-.7-1.83H63.14l-.71,1.83a.43.43,0,0,1-.13.19.4.4,0,0,1-.31.1Zm3-3.85h3.41l-1.71-4.65Z"/><path class="cls-2" d="M76.65,35.9a5.19,5.19,0,0,1-2.37-.49A3.34,3.34,0,0,1,72.8,34a4.85,4.85,0,0,1-.57-2.19c0-.41,0-.85,0-1.32s0-.92,0-1.36A4.79,4.79,0,0,1,72.81,27a3.37,3.37,0,0,1,1.49-1.4,5.1,5.1,0,0,1,2.35-.49,5.84,5.84,0,0,1,1.84.27,4.33,4.33,0,0,1,1.38.74,3.49,3.49,0,0,1,.89,1.11,3.18,3.18,0,0,1,.33,1.37.25.25,0,0,1-.08.22.36.36,0,0,1-.24.09H79.34a.4.4,0,0,1-.27-.08.47.47,0,0,1-.15-.28,2.06,2.06,0,0,0-.82-1.35,2.77,2.77,0,0,0-1.46-.36,2.23,2.23,0,0,0-1.61.56,2.56,2.56,0,0,0-.65,1.86c0,.82,0,1.66,0,2.53A2.56,2.56,0,0,0,75,33.61a2.27,2.27,0,0,0,1.61.56,2.68,2.68,0,0,0,1.46-.37,2.06,2.06,0,0,0,.82-1.35.44.44,0,0,1,.15-.28.46.46,0,0,1,.27-.08h1.43a.36.36,0,0,1,.24.09.27.27,0,0,1,.08.23,3.18,3.18,0,0,1-.33,1.37,3.49,3.49,0,0,1-.89,1.11,4.33,4.33,0,0,1-1.38.74A5.84,5.84,0,0,1,76.65,35.9Z"/><path class="cls-2" d="M83.8,35.75a.35.35,0,0,1-.26-.1.33.33,0,0,1-.1-.26v-9.8a.36.36,0,0,1,.1-.27.35.35,0,0,1,.26-.1h1.37a.34.34,0,0,1,.26.1.41.41,0,0,1,.1.27v3.89H90V25.59a.36.36,0,0,1,.1-.27.35.35,0,0,1,.26-.1h1.35a.36.36,0,0,1,.27.1.37.37,0,0,1,.11.27v9.8a.38.38,0,0,1-.11.26.36.36,0,0,1-.27.1H90.33a.35.35,0,0,1-.26-.1.37.37,0,0,1-.1-.26v-4H85.53v4a.42.42,0,0,1-.1.26.34.34,0,0,1-.26.1Z"/><path class="cls-2" d="M95.28,35.75a.33.33,0,0,1-.25-.1.38.38,0,0,1-.11-.26V25.58a.36.36,0,0,1,.11-.26.33.33,0,0,1,.25-.1H96.7a.33.33,0,0,1,.26.1.35.35,0,0,1,.1.26v9.81a.37.37,0,0,1-.1.26.33.33,0,0,1-.26.1Z"/><path class="cls-2" d="M100.53,35.75a.33.33,0,0,1-.25-.1.38.38,0,0,1-.11-.26v-9.8a.37.37,0,0,1,.11-.27.33.33,0,0,1,.25-.1h1.16a.44.44,0,0,1,.31.09,1.07,1.07,0,0,1,.13.15l4.33,6.74V25.59a.41.41,0,0,1,.1-.27.34.34,0,0,1,.26-.1h1.27a.36.36,0,0,1,.27.1.37.37,0,0,1,.11.27v9.78a.41.41,0,0,1-.11.28.35.35,0,0,1-.26.1h-1.17a.38.38,0,0,1-.3-.1.58.58,0,0,0-.14-.14l-4.32-6.59v6.47a.37.37,0,0,1-.1.26.36.36,0,0,1-.27.1Z"/><path class="cls-2" d="M111.56,35.75a.33.33,0,0,1-.25-.1.38.38,0,0,1-.11-.26v-9.8a.37.37,0,0,1,.11-.27.33.33,0,0,1,.25-.1h6.62a.39.39,0,0,1,.28.1.36.36,0,0,1,.1.27v1a.33.33,0,0,1-.1.25.39.39,0,0,1-.28.11h-5v2.66h4.62a.36.36,0,0,1,.27.1.33.33,0,0,1,.11.26v.93a.35.35,0,0,1-.11.27.41.41,0,0,1-.27.1h-4.62V34h5.07a.34.34,0,0,1,.28.11.36.36,0,0,1,.1.27v1a.35.35,0,0,1-.38.36Z"/><path class="cls-2" d="M125.65,35.75a.33.33,0,0,1-.25-.1.38.38,0,0,1-.11-.26V25.58a.36.36,0,0,1,.11-.26.33.33,0,0,1,.25-.1h1.4a.34.34,0,0,1,.36.36V34h4.78a.36.36,0,0,1,.27.1.4.4,0,0,1,.1.28v1a.37.37,0,0,1-.1.26.36.36,0,0,1-.27.1Z"/><path class="cls-2" d="M134.71,35.75a.33.33,0,0,1-.25-.1.38.38,0,0,1-.11-.26v-9.8a.37.37,0,0,1,.11-.27.33.33,0,0,1,.25-.1h6.63a.34.34,0,0,1,.37.37v1a.33.33,0,0,1-.1.25.37.37,0,0,1-.27.11h-5v2.66H141a.39.39,0,0,1,.28.1.33.33,0,0,1,.1.26v.93a.35.35,0,0,1-.1.27.43.43,0,0,1-.28.1h-4.61V34h5.07a.33.33,0,0,1,.27.11.36.36,0,0,1,.1.27v1a.37.37,0,0,1-.1.26.36.36,0,0,1-.27.1Z"/><path class="cls-2" d="M143.44,35.75a.32.32,0,0,1-.32-.32.35.35,0,0,1,0-.13l3.63-9.71a.56.56,0,0,1,.17-.26.52.52,0,0,1,.36-.11H149a.45.45,0,0,1,.34.11.68.68,0,0,1,.18.26l3.63,9.71a.62.62,0,0,1,0,.13.32.32,0,0,1-.09.23.29.29,0,0,1-.21.09H151.5a.38.38,0,0,1-.3-.1.43.43,0,0,1-.13-.19l-.71-1.83h-4.47l-.71,1.83a.5.5,0,0,1-.12.19.41.41,0,0,1-.31.1Zm3-3.85h3.41l-1.71-4.65Z"/><path class="cls-2" d="M155.31,35.75a.35.35,0,0,1-.26-.1.37.37,0,0,1-.1-.26v-9.8a.36.36,0,0,1,.1-.27.35.35,0,0,1,.26-.1h3.89a4.49,4.49,0,0,1,2.88.84,3,3,0,0,1,1,2.45,3,3,0,0,1-.55,1.85,3.06,3.06,0,0,1-1.46,1.07l2.19,3.84a.37.37,0,0,1,.05.16.29.29,0,0,1-.1.23.33.33,0,0,1-.22.09h-1.37a.49.49,0,0,1-.39-.14,1.24,1.24,0,0,1-.21-.27l-1.94-3.56H157v3.61a.42.42,0,0,1-.1.26.34.34,0,0,1-.26.1ZM157,30.08h2.12a2,2,0,0,0,1.37-.42A1.48,1.48,0,0,0,161,28.5a1.58,1.58,0,0,0-.44-1.18,1.92,1.92,0,0,0-1.38-.43H157Z"/><path class="cls-2" d="M165.91,35.75a.35.35,0,0,1-.26-.1.37.37,0,0,1-.1-.26v-9.8a.36.36,0,0,1,.1-.27.35.35,0,0,1,.26-.1h1.16a.46.46,0,0,1,.31.09l.12.15,4.34,6.74V25.59a.4.4,0,0,1,.09-.27.36.36,0,0,1,.27-.1h1.26a.36.36,0,0,1,.27.1.37.37,0,0,1,.11.27v9.78a.41.41,0,0,1-.11.28.33.33,0,0,1-.25.1H172.3a.38.38,0,0,1-.3-.1.61.61,0,0,0-.13-.14l-4.32-6.59v6.47a.38.38,0,0,1-.11.26.36.36,0,0,1-.27.1Z"/><path class="cls-2" d="M177.08,35.75a.33.33,0,0,1-.25-.1.38.38,0,0,1-.11-.26V25.58a.36.36,0,0,1,.11-.26.33.33,0,0,1,.25-.1h1.42a.34.34,0,0,1,.26.1.4.4,0,0,1,.1.26v9.81a.42.42,0,0,1-.1.26.34.34,0,0,1-.26.1Z"/><path class="cls-2" d="M182.13,35.75a.35.35,0,0,1-.26-.1.37.37,0,0,1-.1-.26v-9.8a.36.36,0,0,1,.1-.27.35.35,0,0,1,.26-.1h1.16a.41.41,0,0,1,.3.09,1.07,1.07,0,0,1,.13.15l4.34,6.74V25.59a.4.4,0,0,1,.09-.27.36.36,0,0,1,.27-.1h1.26a.36.36,0,0,1,.27.1.37.37,0,0,1,.11.27v9.78a.41.41,0,0,1-.11.28.33.33,0,0,1-.25.1h-1.18a.38.38,0,0,1-.3-.1.61.61,0,0,0-.13-.14l-4.32-6.59v6.47a.38.38,0,0,1-.11.26.36.36,0,0,1-.27.1Z"/><path class="cls-2" d="M196.76,35.9a5.27,5.27,0,0,1-2.35-.48,3.48,3.48,0,0,1-1.5-1.39,4.52,4.52,0,0,1-.58-2.18c0-.43,0-.89,0-1.39s0-1,0-1.41a4.32,4.32,0,0,1,.58-2.13,3.46,3.46,0,0,1,1.51-1.37,5.31,5.31,0,0,1,2.34-.48,5.64,5.64,0,0,1,1.93.29,4.75,4.75,0,0,1,1.38.75,3.59,3.59,0,0,1,.83,1,2.32,2.32,0,0,1,.29,1,.25.25,0,0,1-.08.22.32.32,0,0,1-.24.09h-1.55a.34.34,0,0,1-.22-.06.54.54,0,0,1-.14-.18,2.12,2.12,0,0,0-.37-.62,2,2,0,0,0-.7-.52,2.59,2.59,0,0,0-1.13-.21,2.38,2.38,0,0,0-1.63.54,2.44,2.44,0,0,0-.65,1.79c0,.87,0,1.75,0,2.65a2.45,2.45,0,0,0,.67,1.83,2.36,2.36,0,0,0,1.64.56,3,3,0,0,0,1.22-.24,1.9,1.9,0,0,0,.84-.75,2.56,2.56,0,0,0,.31-1.31V31.4h-1.84a.33.33,0,0,1-.25-.1A.37.37,0,0,1,197,31v-.8a.37.37,0,0,1,.11-.27.34.34,0,0,1,.25-.11h3.6a.33.33,0,0,1,.26.11.36.36,0,0,1,.1.27v1.58a4.13,4.13,0,0,1-.55,2.18,3.65,3.65,0,0,1-1.57,1.41A5.25,5.25,0,0,1,196.76,35.9Z"/><path class="cls-1" d="M52.28,50.15a.53.53,0,0,1-.37-.12.69.69,0,0,1-.2-.3L48.54,40.2a.35.35,0,0,1,0-.13.32.32,0,0,1,.09-.23.29.29,0,0,1,.22-.09h1.31a.44.44,0,0,1,.32.12.51.51,0,0,1,.14.21l2.51,7.65,2.49-7.65a.69.69,0,0,1,.15-.21.42.42,0,0,1,.32-.12h1.31a.33.33,0,0,1,.22.09.32.32,0,0,1,.09.23.35.35,0,0,1,0,.13l-3.17,9.53a.69.69,0,0,1-.2.3.53.53,0,0,1-.37.12Z"/><path class="cls-1" d="M60.15,50.15a.38.38,0,0,1-.36-.36V40.11a.38.38,0,0,1,.36-.36h1.4a.35.35,0,0,1,.26.11.37.37,0,0,1,.09.25v9.68a.37.37,0,0,1-.09.25.35.35,0,0,1-.26.11Z"/><path class="cls-1" d="M68.25,50.29a5.8,5.8,0,0,1-2.31-.4,3.43,3.43,0,0,1-1.41-1.07A2.45,2.45,0,0,1,64,47.43a.29.29,0,0,1,.08-.22.32.32,0,0,1,.23-.09h1.32a.48.48,0,0,1,.29.08.85.85,0,0,1,.17.2,1.53,1.53,0,0,0,.34.56,2,2,0,0,0,.69.45,2.93,2.93,0,0,0,1.11.18,2.83,2.83,0,0,0,1.59-.36,1.12,1.12,0,0,0,.53-1,.91.91,0,0,0-.28-.69,2.49,2.49,0,0,0-.87-.48c-.39-.14-.91-.29-1.55-.45A8.79,8.79,0,0,1,65.8,45a2.74,2.74,0,0,1-1.12-1,2.54,2.54,0,0,1-.38-1.46,2.59,2.59,0,0,1,.46-1.53A3.19,3.19,0,0,1,66.1,40a5.2,5.2,0,0,1,2.07-.38,5,5,0,0,1,1.71.26,3.82,3.82,0,0,1,1.23.68,3.1,3.1,0,0,1,.75.9,2.08,2.08,0,0,1,.27.95.28.28,0,0,1-.08.21.26.26,0,0,1-.23.1H70.44a.46.46,0,0,1-.23-.06.44.44,0,0,1-.2-.22,1.23,1.23,0,0,0-.58-.79,2.18,2.18,0,0,0-1.26-.33,2.46,2.46,0,0,0-1.29.3,1,1,0,0,0-.49.92,1,1,0,0,0,.25.69,1.9,1.9,0,0,0,.78.48,14.81,14.81,0,0,0,1.43.45,10.39,10.39,0,0,1,2.07.65,2.75,2.75,0,0,1,1.17.94,3,3,0,0,1-.16,3.12,3.26,3.26,0,0,1-1.47,1.06A6,6,0,0,1,68.25,50.29Z"/><path class="cls-2" d="M79.22,50.29A5.33,5.33,0,0,1,77,49.86a3.31,3.31,0,0,1-1.47-1.35A4.66,4.66,0,0,1,75,46.17v-6a.36.36,0,0,1,.36-.38H76.7a.35.35,0,0,1,.26.11.4.4,0,0,1,.09.27v6a2.49,2.49,0,0,0,.58,1.8,2.15,2.15,0,0,0,1.59.59A2.11,2.11,0,0,0,80.8,48a2.49,2.49,0,0,0,.57-1.8v-6a.37.37,0,0,1,.11-.27.35.35,0,0,1,.26-.11h1.34a.35.35,0,0,1,.26.11.41.41,0,0,1,.1.27v6a4.77,4.77,0,0,1-.52,2.34,3.21,3.21,0,0,1-1.45,1.35A5.35,5.35,0,0,1,79.22,50.29Z"/><path class="cls-2" d="M85.79,50.15a.32.32,0,0,1-.31-.32.35.35,0,0,1,0-.13l3.58-9.57a.56.56,0,0,1,.17-.26.48.48,0,0,1,.35-.12h1.62a.47.47,0,0,1,.34.12.68.68,0,0,1,.18.26l3.57,9.57a.69.69,0,0,1,0,.13.32.32,0,0,1-.09.23.29.29,0,0,1-.21.09H93.75a.41.41,0,0,1-.3-.1.5.5,0,0,1-.13-.19l-.7-1.81H88.21l-.69,1.81a.64.64,0,0,1-.13.19.45.45,0,0,1-.3.1Zm2.94-3.8H92.1l-1.69-4.59Z"/><path class="cls-2" d="M97.5,50.15a.38.38,0,0,1-.36-.36V40.11a.38.38,0,0,1,.36-.36h1.38a.38.38,0,0,1,.36.36v8.27h4.7a.34.34,0,0,1,.37.37v1a.33.33,0,0,1-.1.25.37.37,0,0,1-.27.11Z"/><path class="cls-2" d="M106.8,50.15a.34.34,0,0,1-.25-.11.33.33,0,0,1-.1-.25V40.11a.33.33,0,0,1,.1-.25.34.34,0,0,1,.25-.11h1.4a.35.35,0,0,1,.26.11.37.37,0,0,1,.09.25v9.68a.37.37,0,0,1-.09.25.35.35,0,0,1-.26.11Z"/><path class="cls-2" d="M111.08,50.15a.36.36,0,0,1-.25-.11.36.36,0,0,1-.1-.27v-1a.64.64,0,0,1,.09-.36l.13-.19,5.17-6.68h-4.89a.35.35,0,0,1-.26-.11.37.37,0,0,1-.09-.25v-1a.4.4,0,0,1,.09-.27.35.35,0,0,1,.26-.11h7.1a.37.37,0,0,1,.27.11.41.41,0,0,1,.1.27v1a.67.67,0,0,1-.06.3,1.59,1.59,0,0,1-.13.22l-5.07,6.71h5a.34.34,0,0,1,.37.37v1a.33.33,0,0,1-.1.25.37.37,0,0,1-.27.11Z"/><path class="cls-2" d="M120.68,50.15a.33.33,0,0,1-.22-.09.37.37,0,0,1-.07-.36L124,40.13a.56.56,0,0,1,.17-.26.5.5,0,0,1,.35-.12h1.62a.45.45,0,0,1,.34.12.68.68,0,0,1,.18.26l3.58,9.57a.62.62,0,0,1,0,.13.32.32,0,0,1-.09.23.29.29,0,0,1-.21.09h-1.29a.41.41,0,0,1-.3-.1.5.5,0,0,1-.13-.19l-.7-1.81h-4.4l-.7,1.81a.5.5,0,0,1-.13.19.41.41,0,0,1-.3.1Zm2.94-3.8H127l-1.7-4.59Z"/><path class="cls-2" d="M135,50.15a.38.38,0,0,1-.36-.36V41.58h-2.74a.34.34,0,0,1-.36-.36V40.13a.36.36,0,0,1,.36-.38h7.57a.35.35,0,0,1,.26.11.37.37,0,0,1,.11.27v1.09a.36.36,0,0,1-.11.26.34.34,0,0,1-.26.1h-2.74v8.21a.33.33,0,0,1-.1.25.37.37,0,0,1-.27.11Z"/><path class="cls-2" d="M142.19,50.15a.38.38,0,0,1-.36-.36V40.11a.38.38,0,0,1,.36-.36h1.39a.36.36,0,0,1,.36.36v9.68a.36.36,0,0,1-.36.36Z"/><path class="cls-2" d="M150.86,50.29a5.44,5.44,0,0,1-2.27-.43,3.34,3.34,0,0,1-1.48-1.35,4.74,4.74,0,0,1-.58-2.28c0-.43,0-.85,0-1.26s0-.85,0-1.28a4.69,4.69,0,0,1,.59-2.26,3.49,3.49,0,0,1,1.51-1.36,5.66,5.66,0,0,1,4.47,0,3.46,3.46,0,0,1,1.52,1.36,4.69,4.69,0,0,1,.59,2.26c0,.43,0,.86,0,1.28s0,.83,0,1.26a4.74,4.74,0,0,1-.58,2.28,3.31,3.31,0,0,1-1.49,1.35A5.49,5.49,0,0,1,150.86,50.29Zm0-1.7a2.22,2.22,0,0,0,1.58-.57,2.65,2.65,0,0,0,.65-1.87c0-.43,0-.84,0-1.21s0-.77,0-1.19a3.22,3.22,0,0,0-.32-1.4,1.71,1.71,0,0,0-.78-.79,2.63,2.63,0,0,0-2.24,0,1.71,1.71,0,0,0-.78.79,3.22,3.22,0,0,0-.32,1.4c0,.42,0,.82,0,1.19s0,.78,0,1.21A2.65,2.65,0,0,0,149.3,48,2.21,2.21,0,0,0,150.86,48.59Z"/><path class="cls-2" d="M158.31,50.15a.38.38,0,0,1-.36-.36V40.13a.37.37,0,0,1,.11-.27.34.34,0,0,1,.25-.11h1.14a.46.46,0,0,1,.31.1l.12.14,4.28,6.65V40.13a.36.36,0,0,1,.1-.27.33.33,0,0,1,.26-.11h1.24a.37.37,0,0,1,.27.11.36.36,0,0,1,.1.27v9.64a.36.36,0,0,1-.1.27.34.34,0,0,1-.25.11h-1.16a.38.38,0,0,1-.3-.11l-.13-.13-4.26-6.5v6.38a.34.34,0,0,1-.11.25.33.33,0,0,1-.26.11Z"/><path d="M10.64,52a1.87,1.87,0,0,1-.71-.14,2,2,0,0,1-.59-.4A1.91,1.91,0,0,1,9,50.86a1.9,1.9,0,0,1,0-1.43,1.91,1.91,0,0,1,.39-.58,2,2,0,0,1,.59-.4,1.87,1.87,0,0,1,.71-.14,1.83,1.83,0,0,1,.71.14,1.87,1.87,0,0,1,.59.4,1.74,1.74,0,0,1,.39.58,1.78,1.78,0,0,1,0,1.43,1.74,1.74,0,0,1-.39.58,1.87,1.87,0,0,1-.59.4A1.83,1.83,0,0,1,10.64,52Zm0-.28a1.45,1.45,0,0,0,.59-.12,1.54,1.54,0,0,0,.49-.34,1.56,1.56,0,0,0,.33-.5,1.45,1.45,0,0,0,.12-.59,1.53,1.53,0,0,0-.12-.6,1.56,1.56,0,0,0-.33-.5,1.72,1.72,0,0,0-.49-.34,1.51,1.51,0,0,0-1.18,0,1.72,1.72,0,0,0-.49.34,1.56,1.56,0,0,0-.33.5,1.53,1.53,0,0,0-.12.6,1.45,1.45,0,0,0,.12.59,1.56,1.56,0,0,0,.33.5,1.54,1.54,0,0,0,.49.34A1.45,1.45,0,0,0,10.64,51.7Zm-.57-.63C10,51.07,10,51,10,51V49.32c0-.07,0-.11.12-.11h.65a1.29,1.29,0,0,1,.35,0,.53.53,0,0,1,.25.19.61.61,0,0,1,.09.35.53.53,0,0,1-.1.34.58.58,0,0,1-.27.19l.35.56s0,0,0,0,0,0,0,0a.13.13,0,0,1,0,.08.12.12,0,0,1-.09,0h-.07l-.08,0a.23.23,0,0,1-.07-.07l-.36-.59h-.46V51c0,.08,0,.11-.11.11Zm.19-1h.45A.41.41,0,0,0,11,50a.32.32,0,0,0,.08-.2.32.32,0,0,0-.08-.21.41.41,0,0,0-.31-.09h-.45Z"/></svg>