<svg id="Layer_1" data-name="Layer 1" xmlns="http://www.w3.org/2000/svg" viewBox="0 0 79.13 58.29"><defs><style>.cls-1{fill:#051c3d;}</style></defs><path class="cls-1" d="M6.67,28.57h9.68V9.93l.7,0H36.43a6.25,6.25,0,0,1,6.24,6.25q0,13.94,0,27.85a8.12,8.12,0,0,1-8.13,8.09h-10a8.09,8.09,0,0,1-8.11-8c0-3.27,0-6.54,0-9.81v-.79H6.67Zm19,4.89H20.86v9.75a4.46,4.46,0,0,0,4.38,4.4h8.54a4.49,4.49,0,0,0,4.41-4.39q0-12.22,0-24.44a4.48,4.48,0,0,0-4.41-4.39H21.53l-.63,0V28.59h4.8Z"/><path class="cls-1" d="M49.62,22.91a.38.38,0,0,1-.38-.38V12.28a.38.38,0,0,1,.11-.28.36.36,0,0,1,.27-.11h3.84a6.28,6.28,0,0,1,2.63.48,3.41,3.41,0,0,1,1.55,1.45,4.86,4.86,0,0,1,.55,2.35q0,.69,0,1.23c0,.35,0,.76,0,1.21A5.34,5.34,0,0,1,57.65,21a3.12,3.12,0,0,1-1.52,1.41,6.21,6.21,0,0,1-2.59.47Zm1.81-1.81h2a3.65,3.65,0,0,0,1.44-.25,1.66,1.66,0,0,0,.81-.82A3.71,3.71,0,0,0,56,18.56c0-.31,0-.59,0-.82V17q0-.36,0-.81a2.7,2.7,0,0,0-.64-1.91,2.67,2.67,0,0,0-2-.61h-2Z"/><path class="cls-1" d="M60.11,22.91a.3.3,0,0,1-.23-.1.3.3,0,0,1-.11-.23.27.27,0,0,1,0-.14L63.6,12.28a.57.57,0,0,1,.18-.28.58.58,0,0,1,.37-.11h1.72a.53.53,0,0,1,.36.11.77.77,0,0,1,.19.28l3.79,10.16a.78.78,0,0,1,0,.14.32.32,0,0,1-.09.23.3.3,0,0,1-.23.1H68.55a.5.5,0,0,1-.33-.1.52.52,0,0,1-.13-.2l-.74-1.92H62.67l-.74,1.92a.52.52,0,0,1-.13.2.49.49,0,0,1-.32.1Zm3.11-4H66.8L65,14Z"/><path class="cls-1" d="M49.41,35.75a.36.36,0,0,1-.27-.1.38.38,0,0,1-.11-.26v-9.8a.37.37,0,0,1,.11-.27.36.36,0,0,1,.27-.1H50.6a.38.38,0,0,1,.31.11.8.8,0,0,1,.14.17L54,30.92l2.94-5.42a.69.69,0,0,1,.13-.17.4.4,0,0,1,.32-.11h1.17a.36.36,0,0,1,.27.1.37.37,0,0,1,.11.27v9.8a.38.38,0,0,1-.11.26.36.36,0,0,1-.27.1H57.25a.36.36,0,0,1-.27-.1.41.41,0,0,1-.09-.26V28.87l-2.11,4a.74.74,0,0,1-.2.23.45.45,0,0,1-.31.1h-.62a.44.44,0,0,1-.32-.1.71.71,0,0,1-.19-.23l-2.11-4v6.52a.37.37,0,0,1-.1.26.35.35,0,0,1-.26.1Z"/><path class="cls-1" d="M60.69,35.75a.31.31,0,0,1-.22-.09.29.29,0,0,1-.1-.23.35.35,0,0,1,0-.13L64,25.59a.5.5,0,0,1,.17-.26.48.48,0,0,1,.35-.11h1.64a.48.48,0,0,1,.35.11.68.68,0,0,1,.18.26l3.63,9.71a.62.62,0,0,1,0,.13.32.32,0,0,1-.09.23.29.29,0,0,1-.21.09H68.75a.41.41,0,0,1-.31-.1.72.72,0,0,1-.13-.19l-.7-1.83H63.14l-.71,1.83a.43.43,0,0,1-.13.19.4.4,0,0,1-.31.1Zm3-3.85h3.41l-1.71-4.65Z"/><path class="cls-1" d="M52.28,50.15a.53.53,0,0,1-.37-.12.69.69,0,0,1-.2-.3L48.54,40.2a.35.35,0,0,1,0-.13.32.32,0,0,1,.09-.23.29.29,0,0,1,.22-.09h1.31a.44.44,0,0,1,.32.12.51.51,0,0,1,.14.21l2.51,7.65,2.49-7.65a.69.69,0,0,1,.15-.21.42.42,0,0,1,.32-.12h1.31a.33.33,0,0,1,.22.09.32.32,0,0,1,.09.23.35.35,0,0,1,0,.13l-3.17,9.53a.69.69,0,0,1-.2.3.53.53,0,0,1-.37.12Z"/><path class="cls-1" d="M60.15,50.15a.38.38,0,0,1-.36-.36V40.11a.38.38,0,0,1,.36-.36h1.4a.35.35,0,0,1,.26.11.37.37,0,0,1,.09.25v9.68a.37.37,0,0,1-.09.25.35.35,0,0,1-.26.11Z"/><path class="cls-1" d="M68.25,50.29a5.8,5.8,0,0,1-2.31-.4,3.43,3.43,0,0,1-1.41-1.07A2.45,2.45,0,0,1,64,47.43a.29.29,0,0,1,.08-.22.32.32,0,0,1,.23-.09h1.32a.48.48,0,0,1,.29.08.85.85,0,0,1,.17.2,1.53,1.53,0,0,0,.34.56,2,2,0,0,0,.69.45,2.93,2.93,0,0,0,1.11.18,2.83,2.83,0,0,0,1.59-.36,1.12,1.12,0,0,0,.53-1,.91.91,0,0,0-.28-.69,2.49,2.49,0,0,0-.87-.48c-.39-.14-.91-.29-1.55-.45A8.79,8.79,0,0,1,65.8,45a2.74,2.74,0,0,1-1.12-1,2.54,2.54,0,0,1-.38-1.46,2.59,2.59,0,0,1,.46-1.53A3.19,3.19,0,0,1,66.1,40a5.2,5.2,0,0,1,2.07-.38,5,5,0,0,1,1.71.26,3.82,3.82,0,0,1,1.23.68,3.1,3.1,0,0,1,.75.9,2.08,2.08,0,0,1,.27.95.28.28,0,0,1-.08.21.26.26,0,0,1-.23.1H70.44a.46.46,0,0,1-.23-.06.44.44,0,0,1-.2-.22,1.23,1.23,0,0,0-.58-.79,2.18,2.18,0,0,0-1.26-.33,2.46,2.46,0,0,0-1.29.3,1,1,0,0,0-.49.92,1,1,0,0,0,.25.69,1.9,1.9,0,0,0,.78.48,14.81,14.81,0,0,0,1.43.45,10.39,10.39,0,0,1,2.07.65,2.75,2.75,0,0,1,1.17.94,3,3,0,0,1-.16,3.12,3.26,3.26,0,0,1-1.47,1.06A6,6,0,0,1,68.25,50.29Z"/><path d="M10.64,52a1.87,1.87,0,0,1-.71-.14,2,2,0,0,1-.59-.4A1.91,1.91,0,0,1,9,50.86a1.9,1.9,0,0,1,0-1.43,1.91,1.91,0,0,1,.39-.58,2,2,0,0,1,.59-.4,1.87,1.87,0,0,1,.71-.14,1.83,1.83,0,0,1,.71.14,1.87,1.87,0,0,1,.59.4,1.74,1.74,0,0,1,.39.58,1.78,1.78,0,0,1,0,1.43,1.74,1.74,0,0,1-.39.58,1.87,1.87,0,0,1-.59.4A1.83,1.83,0,0,1,10.64,52Zm0-.28a1.45,1.45,0,0,0,.59-.12,1.54,1.54,0,0,0,.49-.34,1.56,1.56,0,0,0,.33-.5,1.45,1.45,0,0,0,.12-.59,1.53,1.53,0,0,0-.12-.6,1.56,1.56,0,0,0-.33-.5,1.72,1.72,0,0,0-.49-.34,1.51,1.51,0,0,0-1.18,0,1.72,1.72,0,0,0-.49.34,1.56,1.56,0,0,0-.33.5,1.53,1.53,0,0,0-.12.6,1.45,1.45,0,0,0,.12.59,1.56,1.56,0,0,0,.33.5,1.54,1.54,0,0,0,.49.34A1.45,1.45,0,0,0,10.64,51.7Zm-.57-.63C10,51.07,10,51,10,51V49.32c0-.07,0-.11.12-.11h.65a1.29,1.29,0,0,1,.35,0,.53.53,0,0,1,.25.19.61.61,0,0,1,.09.35.53.53,0,0,1-.1.34.58.58,0,0,1-.27.19l.35.56s0,0,0,0,0,0,0,0a.13.13,0,0,1,0,.08.12.12,0,0,1-.09,0h-.07l-.08,0a.23.23,0,0,1-.07-.07l-.36-.59h-.46V51c0,.08,0,.11-.11.11Zm.19-1h.45A.41.41,0,0,0,11,50a.32.32,0,0,0,.08-.2.32.32,0,0,0-.08-.21.41.41,0,0,0-.31-.09h-.45Z"/></svg>