<svg xmlns="http://www.w3.org/2000/svg" xmlns:xlink="http://www.w3.org/1999/xlink" version="1.1" x="0px" y="0px" viewBox="0 0 64 80" style="enable-background:new 0 0 64 64;" xml:space="preserve"><g><path d="M55,3c-4.072,0-7.436,3.06-7.931,7H45c-1.654,0-3,1.346-3,3v16h-9V16.931c3.94-0.495,7-3.859,7-7.931c0-4.411-3.589-8-8-8   s-8,3.589-8,8c0,4.072,3.06,7.436,7,7.931V29h-6.414L22,31.586V13c0-1.654-1.346-3-3-3h-2.069C16.436,6.06,13.072,3,9,3   c-4.411,0-8,3.589-8,8s3.589,8,8,8c4.072,0,7.436-3.06,7.931-7H19c0.552,0,1,0.449,1,1v20.586l-2,2V47h-2V27h2v-2h-2   c-1.103,0-2,0.897-2,2v20c0,1.103,0.897,2,2,2h20v2H15c-1.654,0-3-1.346-3-3V26c0-1.654,1.346-3,3-3h3v-2h-3c-2.757,0-5,2.243-5,5   v22c0,2.757,2.243,5,5,5h9v2h-3c-1.654,0-3,1.346-3,3v2c0,1.654,1.346,3,3,3h22c1.654,0,3-1.346,3-3v-2c0-1.654-1.346-3-3-3h-3v-2   h9c2.757,0,5-2.243,5-5V26c0-2.757-2.243-5-5-5h-3v2h3c1.654,0,3,1.346,3,3v17h-2V27c0-1.103-0.897-2-2-2h-2v2h2v16h-2V29h-2V13   c0-0.551,0.448-1,1-1h2.069c0.495,3.94,3.859,7,7.931,7c4.411,0,8-3.589,8-8S59.411,3,55,3z M26,9c0-0.702,0.128-1.373,0.35-2   h1.875C28.088,7.633,28,8.299,28,9s0.088,1.367,0.225,2H26.35C26.128,10.373,26,9.702,26,9z M30,9c0-0.703,0.11-1.374,0.282-2h3.44   C33.891,7.625,34,8.295,34,9c0,0.703-0.11,1.374-0.281,2h-3.44C30.109,10.375,30,9.705,30,9z M31.086,5   c0.309-0.579,0.636-1.064,0.916-1.441C32.283,3.935,32.61,4.421,32.919,5H31.086z M38,9c0,0.702-0.128,1.373-0.35,2h-1.888   C35.9,10.365,36,9.703,36,9c0-0.701-0.088-1.367-0.225-2h1.875C37.872,7.627,38,8.298,38,9z M32.914,13   c-0.309,0.579-0.636,1.064-0.916,1.441c-0.281-0.376-0.608-0.862-0.917-1.441H32.914z M34.353,14.518   c0.269-0.447,0.532-0.961,0.772-1.518h1.334C35.879,13.647,35.164,14.171,34.353,14.518z M36.46,5h-1.328   c-0.24-0.558-0.506-1.068-0.775-1.517C35.166,3.83,35.879,4.354,36.46,5z M29.644,3.483C29.374,3.932,29.108,4.442,28.868,5H27.54   C28.121,4.354,28.834,3.83,29.644,3.483z M27.54,13h1.328c0.24,0.558,0.506,1.068,0.775,1.517C28.834,14.17,28.121,13.646,27.54,13   z M13.46,7h-1.328c-0.24-0.558-0.506-1.068-0.775-1.517C12.166,5.83,12.879,6.354,13.46,7z M15,11c0,0.702-0.128,1.373-0.35,2   h-1.875C12.912,12.367,13,11.701,13,11s-0.088-1.367-0.225-2h1.875C14.872,9.627,15,10.298,15,11z M7.279,13   C7.109,12.375,7,11.705,7,11c0-0.703,0.11-1.374,0.282-2h3.44C10.891,9.625,11,10.295,11,11c0,0.703-0.11,1.374-0.281,2H7.279z    M9.914,15c-0.309,0.579-0.636,1.064-0.916,1.441C8.717,16.065,8.39,15.579,8.081,15H9.914z M3,11c0-0.702,0.128-1.373,0.35-2   h1.875C5.088,9.633,5,10.299,5,11s0.088,1.367,0.225,2H3.35C3.128,12.373,3,11.702,3,11z M8.086,7   c0.309-0.579,0.636-1.064,0.916-1.441C9.283,5.935,9.61,6.421,9.919,7H8.086z M6.644,5.483C6.374,5.932,6.108,6.442,5.868,7H4.54   C5.121,6.354,5.834,5.83,6.644,5.483z M4.54,15h1.328c0.24,0.558,0.506,1.068,0.775,1.517C5.834,16.17,5.121,15.646,4.54,15z    M11.356,16.517c0.269-0.448,0.535-0.958,0.775-1.517h1.328C12.879,15.646,12.166,16.17,11.356,16.517z M24,32.414V35h-2.586   L24,32.414z M43,57c0.552,0,1,0.448,1,1v2c0,0.552-0.448,1-1,1H21c-0.552,0-1-0.448-1-1v-2c0-0.552,0.448-1,1-1h3   c0,1.103,0.972,2,2.167,2h11.666C39.028,59,40,58.103,40,57H43z M38.016,56.94c-0.009,0.012-0.07,0.06-0.183,0.06H26.167   c-0.102,0.001-0.159-0.037-0.167-0.012V53h12.003L38.016,56.94z M52,48c0,1.654-1.346,3-3,3H38v-6h14V48z M38,43   c-1.103,0-2,0.897-2,2v2H20V37h6v-6h18v12H38z M59.46,7h-1.328c-0.24-0.558-0.506-1.068-0.775-1.517   C58.166,5.83,58.879,6.354,59.46,7z M61,11c0,0.702-0.128,1.373-0.35,2h-1.875C58.912,12.367,59,11.701,59,11s-0.088-1.367-0.225-2   h1.875C60.872,9.627,61,10.298,61,11z M53.279,13C53.109,12.375,53,11.705,53,11c0-0.703,0.11-1.374,0.282-2h3.44   C56.891,9.625,57,10.295,57,11c0,0.703-0.11,1.374-0.281,2H53.279z M55.914,15c-0.309,0.579-0.636,1.064-0.916,1.441   c-0.281-0.376-0.608-0.862-0.917-1.441H55.914z M49,11c0-0.702,0.128-1.373,0.35-2h1.875C51.088,9.633,51,10.299,51,11   s0.088,1.367,0.225,2H49.35C49.128,12.373,49,11.702,49,11z M54.086,7c0.309-0.579,0.636-1.064,0.916-1.441   C55.283,5.935,55.61,6.421,55.919,7H54.086z M52.644,5.483C52.374,5.932,52.108,6.442,51.868,7H50.54   C51.121,6.354,51.834,5.83,52.644,5.483z M50.54,15h1.328c0.24,0.558,0.506,1.068,0.775,1.517C51.834,16.17,51.121,15.646,50.54,15   z M57.356,16.517c0.269-0.448,0.535-0.958,0.775-1.517h1.328C58.879,15.646,58.166,16.17,57.356,16.517z"/><rect x="24" y="21" width="5" height="2"/><rect x="35" y="21" width="5" height="2"/><rect x="35" y="25" width="5" height="2"/><rect x="24" y="25" width="5" height="2"/><rect x="48" y="47" width="2" height="2"/><rect x="44" y="47" width="2" height="2"/><rect x="40" y="47" width="2" height="2"/><rect x="28" y="35" width="14" height="2"/><rect x="22" y="39" width="20" height="2"/><rect x="22" y="43" width="2" height="2"/><rect x="26" y="43" width="2" height="2"/><rect x="30" y="43" width="2" height="2"/></g><text x="0" y="79" fill="#000000" font-size="5px" font-weight="bold" font-family="'Helvetica Neue', Helvetica, Arial-Unicode, Arial, Sans-serif">Created by Eucalyp</text><text x="0" y="84" fill="#000000" font-size="5px" font-weight="bold" font-family="'Helvetica Neue', Helvetica, Arial-Unicode, Arial, Sans-serif">from the Noun Project</text></svg>