<?xml version="1.0" encoding="UTF-8"?>
<svg width="38px" height="36px" viewBox="0 0 38 36" version="1.1" xmlns="http://www.w3.org/2000/svg" xmlns:xlink="http://www.w3.org/1999/xlink">
    <title>Atoms/Icons/Facebook Copy 3</title>
    <defs>
        <polygon id="path-1" points="0 0 37.453211 0 37.453211 35.6697248 0 35.6697248"></polygon>
    </defs>
    <g id="ðŸŽ-Symbols" stroke="none" stroke-width="1" fill="none" fill-rule="evenodd">
        <g id="Organisms/Footer/4K" transform="translate(-1839.000000, -1408.000000)">
            <g id="Organisms/Footer-2" transform="translate(0.000000, 1316.000000)">
                <g id="Organisms/Menu/White" transform="translate(274.614679, 72.454128)">
                    <g id="Group" transform="translate(1555.862385, 10.623853)">
                        <g id="Group-3" transform="translate(8.917431, 8.917431)">
                            <mask id="mask-2" fill="white">
                                <use xlink:href="#path-1"></use>
                            </mask>
                            <g id="Clip-2"></g>
                            <path d="M18.7254559,0 C8.38501293,0 0,8.18695179 0,18.2878968 C0,26.3659587 5.36507476,33.2192894 12.8074347,35.6384421 C13.7443398,35.8057061 14.0857641,35.24105 14.0857641,34.7560969 C14.0857641,34.3227823 14.06967,33.1721412 14.0604734,31.6465594 C8.85174109,32.7511749 7.7527457,29.1948519 7.7527457,29.1948519 C6.90090932,27.0821626 5.67316134,26.5208743 5.67316134,26.5208743 C3.9729373,25.3859492 5.80191393,25.4084008 5.80191393,25.4084008 C7.68147194,25.5386197 8.67010796,27.293207 8.67010796,27.293207 C10.340443,30.0873004 13.0522946,29.2801678 14.1202514,28.8131759 C14.2903888,27.6311026 14.773211,26.8250926 15.3089138,26.3682038 C11.1508946,25.9068248 6.77905418,24.3374626 6.77905418,17.3303389 C6.77905418,15.3343976 7.50903543,13.7021711 8.70689442,12.4235562 C8.51376552,11.9610546 7.87115211,10.1020676 8.88967713,7.58412811 C8.88967713,7.58412811 10.4622981,7.09243952 14.039781,9.45883118 C15.5330813,9.05245842 17.1355913,8.85039461 18.7277551,8.84253658 C20.3176197,8.85039461 21.9201298,9.05245842 23.4157291,9.45883118 C26.9909129,7.09243952 28.5600852,7.58412811 28.5600852,7.58412811 C29.5820589,10.1020676 28.9394455,11.9610546 28.7463166,12.4235562 C29.9464747,13.7021711 30.6718577,15.3343976 30.6718577,17.3303389 C30.6718577,24.3554238 26.2931198,25.9012119 22.1213057,26.3536103 C22.7938081,26.9182664 23.3927376,28.0341077 23.3927376,29.7404242 C23.3927376,32.1842737 23.3697461,34.1566409 23.3697461,34.7560969 C23.3697461,35.2455403 23.7065721,35.8146867 24.657272,35.636197 C32.091585,33.2125539 37.453211,26.3637135 37.453211,18.2878968 C37.453211,8.18695179 29.0681981,0 18.7254559,0" id="Fill-1" fill="#FFFFFF" mask="url(#mask-2)"></path>
                        </g>
                    </g>
                </g>
            </g>
        </g>
    </g>
</svg>