<?xml version="1.0" encoding="UTF-8"?>
<svg width="37px" height="36px" viewBox="0 0 37 36" version="1.1" xmlns="http://www.w3.org/2000/svg" xmlns:xlink="http://www.w3.org/1999/xlink">
    <title>Atoms/Icons/Facebook Copy 2</title>
    <g id="ðŸŽ-Symbols" stroke="none" stroke-width="1" fill="none" fill-rule="evenodd">
        <g id="Organisms/Footer/4K" transform="translate(-1771.000000, -1408.000000)" fill="#FFFFFF">
            <g id="Organisms/Footer-2" transform="translate(0.000000, 1316.000000)">
                <g id="Organisms/Menu/White" transform="translate(274.614679, 72.454128)">
                    <g id="Atoms/Icons/Facebook-Copy-2" transform="translate(1487.866972, 10.623853)">
                        <path d="M34.1132198,44.4696017 C36.969352,44.3302782 39.500396,43.6801018 41.5902489,41.5902489 C43.6801018,39.500396 44.3302782,36.969352 44.4696017,34.1132198 C44.5624841,32.4722983 44.5831246,30.841697 44.5865647,29.2076557 L44.5857047,26.7522936 C44.5857047,24.2909113 44.6089253,21.8527496 44.4696017,19.3913674 C44.3302782,16.5352351 43.6801018,14.0041911 41.5902489,11.9143382 C39.500396,9.82448539 36.969352,9.17430894 34.1132198,9.03498542 C32.4722983,8.94210307 30.841697,8.92146254 29.2076557,8.91802246 L26.7522936,8.91888248 C24.2909113,8.91888248 21.8527496,8.89566189 19.3913674,9.03498542 C16.5352351,9.17430894 14.0041911,9.82448539 11.9143382,11.9143382 C9.82448539,14.0041911 9.17430894,16.5352351 9.03498542,19.3913674 C8.94210307,21.0322889 8.92146254,22.6628901 8.91802246,24.2969315 L8.91888248,26.7522936 C8.91888248,29.2136758 8.89566189,31.6518375 9.03498542,34.1132198 C9.17430894,36.969352 9.82448539,39.500396 11.9143382,41.5902489 C14.0041911,43.6801018 16.5352351,44.3302782 19.3913674,44.4696017 C21.0322889,44.5624841 22.6628901,44.5831246 24.2969315,44.5865647 L26.7522936,44.5857047 C29.2136758,44.5857047 31.6518375,44.6089253 34.1132198,44.4696017 Z M27.402396,41.3843604 L26.7522936,41.3812636 C24.1515878,41.3812636 18.5786468,41.5902489 16.2333675,40.6614254 C15.4206469,40.3363372 14.8169117,39.9415872 14.1899558,39.3146313 C13.563,38.6876755 13.16825,38.0839402 12.8431617,37.2712197 C11.9143382,34.9259403 12.1233235,29.3529994 12.1233235,26.7522936 C12.1233235,24.1515878 11.9143382,18.5786468 12.8431617,16.2333675 C13.16825,15.4206469 13.563,14.8169117 14.1899558,14.1899558 C14.8169117,13.563 15.4206469,13.16825 16.2333675,12.8431617 C18.5786468,11.9143382 24.1515878,12.1233235 26.7522936,12.1233235 C29.3529994,12.1233235 34.9259403,11.9143382 37.2712197,12.8431617 C38.0839402,13.16825 38.6876755,13.563 39.3146313,14.1899558 C39.9415872,14.8169117 40.3363372,15.4206469 40.6614254,16.2333675 C41.5902489,18.5786468 41.3812636,24.1515878 41.3812636,26.7522936 C41.3812636,29.3529994 41.5902489,34.9259403 40.6614254,37.2712197 C40.3363372,38.0839402 39.9415872,38.6876755 39.3146313,39.3146313 C38.6876755,39.9415872 38.0839402,40.3363372 37.2712197,40.6614254 C35.1063464,41.5188009 30.1912763,41.4066826 27.402396,41.3843604 Z M36.2727344,19.3681468 C37.4569844,19.3681468 38.4090284,18.4161027 38.4090284,17.2318528 C38.4090284,16.0476028 37.4569844,15.0955587 36.2727344,15.0955587 C35.0884844,15.0955587 34.1364404,16.0476028 34.1364404,17.2318528 C34.1364404,18.4161027 35.0884844,19.3681468 36.2727344,19.3681468 Z M26.7522936,35.901205 C31.8143816,35.901205 35.901205,31.8143816 35.901205,26.7522936 C35.901205,21.6902055 31.8143816,17.6033822 26.7522936,17.6033822 C21.6902055,17.6033822 17.6033822,21.6902055 17.6033822,26.7522936 C17.6033822,31.8143816 21.6902055,35.901205 26.7522936,35.901205 Z M26.7522936,32.6967639 C23.4781908,32.6967639 20.8078232,30.0263964 20.8078232,26.7522936 C20.8078232,23.4781908 23.4781908,20.8078232 26.7522936,20.8078232 C30.0263964,20.8078232 32.6967639,23.4781908 32.6967639,26.7522936 C32.6967639,30.0263964 30.0263964,32.6967639 26.7522936,32.6967639 Z" id="icon_ig"></path>
                    </g>
                </g>
            </g>
        </g>
    </g>
</svg>