<?xml version="1.0" encoding="UTF-8"?>
<svg width="32px" height="32px" viewBox="0 0 32 32" version="1.1" xmlns="http://www.w3.org/2000/svg" xmlns:xlink="http://www.w3.org/1999/xlink">
    <title>Atoms/Icons/Facebook Copy 2</title>
    <g id="ðŸ Home" stroke="none" stroke-width="1" fill="none" fill-rule="evenodd">
        <g id="RES_Home_V1_00_Menu" transform="translate(-175.000000, -485.000000)" fill="#051C3D">
            <g id="Atoms/Icons/Facebook-Copy-2" transform="translate(167.000000, 477.000000)">
                <path d="M30.6036293,39.8945398 C33.1659207,39.76955 35.4365693,39.1862641 37.3114167,37.3114167 C39.1862641,35.4365693 39.76955,33.1659207 39.8945398,30.6036293 C39.9778664,29.1315268 39.9963834,27.6686829 39.9994696,26.2027528 L39.998698,24 C39.998698,21.7918464 40.0195297,19.6045244 39.8945398,17.3963707 C39.76955,14.8340793 39.1862641,12.5634307 37.3114167,10.6885833 C35.4365693,8.81373586 33.1659207,8.23045 30.6036293,8.10546017 C29.1315268,8.02213362 27.6686829,8.0036166 26.2027528,8.00053044 L24,8.00130198 C21.7918464,8.00130198 19.6045244,7.98047034 17.3963707,8.10546017 C14.8340793,8.23045 12.5634307,8.81373586 10.6885833,10.6885833 C8.81373586,12.5634307 8.23045,14.8340793 8.10546017,17.3963707 C8.02213362,18.8684732 8.0036166,20.3313171 8.00053044,21.7972472 L8.00130198,24 C8.00130198,26.2081536 7.98047034,28.3954756 8.10546017,30.6036293 C8.23045,33.1659207 8.81373586,35.4365693 10.6885833,37.3114167 C12.5634307,39.1862641 14.8340793,39.76955 17.3963707,39.8945398 C18.8684732,39.9778664 20.3313171,39.9963834 21.7972472,39.9994696 L24,39.998698 C26.2081536,39.998698 28.3954756,40.0195297 30.6036293,39.8945398 Z M24.5832195,37.1267102 L24,37.123932 C21.6668565,37.123932 16.6672634,37.3114167 14.563268,36.4781512 C13.8341606,36.1865083 13.292538,35.8323704 12.7300838,35.2699162 C12.1676296,34.707462 11.8134917,34.1658394 11.5218488,33.436732 C10.6885833,31.3327366 10.876068,26.3331435 10.876068,24 C10.876068,21.6668565 10.6885833,16.6672634 11.5218488,14.563268 C11.8134917,13.8341606 12.1676296,13.292538 12.7300838,12.7300838 C13.292538,12.1676296 13.8341606,11.8134917 14.563268,11.5218488 C16.6672634,10.6885833 21.6668565,10.876068 24,10.876068 C26.3331435,10.876068 31.3327366,10.6885833 33.436732,11.5218488 C34.1658394,11.8134917 34.707462,12.1676296 35.2699162,12.7300838 C35.8323704,13.292538 36.1865083,13.8341606 36.4781512,14.563268 C37.3114167,16.6672634 37.123932,21.6668565 37.123932,24 C37.123932,26.3331435 37.3114167,31.3327366 36.4781512,33.436732 C36.1865083,34.1658394 35.8323704,34.707462 35.2699162,35.2699162 C34.707462,35.8323704 34.1658394,36.1865083 33.436732,36.4781512 C31.4945824,37.2473194 27.0851779,37.1467358 24.5832195,37.1267102 Z M32.5409716,17.3755391 C33.6033851,17.3755391 34.4574823,16.5214419 34.4574823,15.4590284 C34.4574823,14.3966149 33.6033851,13.5425177 32.5409716,13.5425177 C31.4785581,13.5425177 30.6244609,14.3966149 30.6244609,15.4590284 C30.6244609,16.5214419 31.4785581,17.3755391 32.5409716,17.3755391 Z M24,32.2076654 C28.5412971,32.2076654 32.2076654,28.5412971 32.2076654,24 C32.2076654,19.4587029 28.5412971,15.7923346 24,15.7923346 C19.4587029,15.7923346 15.7923346,19.4587029 15.7923346,24 C15.7923346,28.5412971 19.4587029,32.2076654 24,32.2076654 Z M24,29.3328993 C21.062739,29.3328993 18.6671007,26.937261 18.6671007,24 C18.6671007,21.062739 21.062739,18.6671007 24,18.6671007 C26.937261,18.6671007 29.3328993,21.062739 29.3328993,24 C29.3328993,26.937261 26.937261,29.3328993 24,29.3328993 Z" id="icon_ig"></path>
            </g>
        </g>
    </g>
</svg>