<?xml version="1.0" encoding="UTF-8" standalone="no"?>
<svg
   xmlns:dc="http://purl.org/dc/elements/1.1/"
   xmlns:cc="http://creativecommons.org/ns#"
   xmlns:rdf="http://www.w3.org/1999/02/22-rdf-syntax-ns#"
   xmlns:svg="http://www.w3.org/2000/svg"
   xmlns="http://www.w3.org/2000/svg"
   xmlns:sodipodi="http://sodipodi.sourceforge.net/DTD/sodipodi-0.dtd"
   xmlns:inkscape="http://www.inkscape.org/namespaces/inkscape"
   width="24"
   height="24"
   viewBox="0 0 24 24"
   version="1.1"
   id="svg881"
   sodipodi:docname="Linkedin.svg"
   inkscape:version="1.0.2 (e86c870879, 2021-01-15)">
  <metadata
     id="metadata887">
    <rdf:RDF>
      <cc:Work
         rdf:about="">
        <dc:format>image/svg+xml</dc:format>
        <dc:type
           rdf:resource="http://purl.org/dc/dcmitype/StillImage" />
        <dc:title></dc:title>
      </cc:Work>
    </rdf:RDF>
  </metadata>
  <defs
     id="defs885" />
  <sodipodi:namedview
     pagecolor="#b7b7b7"
     bordercolor="#666666"
     borderopacity="1"
     objecttolerance="10"
     gridtolerance="10"
     guidetolerance="10"
     inkscape:pageopacity="0"
     inkscape:pageshadow="2"
     inkscape:window-width="1920"
     inkscape:window-height="1052"
     id="namedview883"
     showgrid="false"
     inkscape:zoom="17.708333"
     inkscape:cx="11.585565"
     inkscape:cy="20.286212"
     inkscape:window-x="1920"
     inkscape:window-y="0"
     inkscape:window-maximized="1"
     inkscape:current-layer="svg881"
     fit-margin-top="0"
     fit-margin-left="0"
     fit-margin-right="0"
     fit-margin-bottom="0" />
  <path
     d="M 19,0 H 5 C 2.239,0 0,2.239 0,5 v 14 c 0,2.761 2.239,5 5,5 h 14 c 2.762,0 5,-2.239 5,-5 V 5 C 24,2.239 21.762,0 19,0 Z M 8,19 H 5 V 8 H 8 Z M 6.5,6.732 c -0.966,0 -1.75,-0.79 -1.75,-1.764 0,-0.974 0.784,-1.764 1.75,-1.764 0.966,0 1.75,0.79 1.75,1.764 0,0.974 -0.783,1.764 -1.75,1.764 z M 20,19 h -3 v -5.604 c 0,-3.368 -4,-3.113 -4,0 V 19 H 10 V 8 h 3 v 1.765 c 1.396,-2.586 7,-2.777 7,2.476 z"
     id="path879"
     style="fill:#ffffff" />
</svg>
