<?xml version="1.0" encoding="UTF-8"?>
<svg width="36px" height="30px" viewBox="0 0 36 30" version="1.1" xmlns="http://www.w3.org/2000/svg" xmlns:xlink="http://www.w3.org/1999/xlink">
    <title>Atoms/Icons/Facebook Copy</title>
    <g id="ðŸŽ-Symbols" stroke="none" stroke-width="1" fill="none" fill-rule="evenodd">
        <g id="Organisms/Footer/4K" transform="translate(-1704.000000, -1413.000000)" fill="#FFFFFF">
            <g id="Organisms/Footer-2" transform="translate(0.000000, 1316.000000)">
                <g id="Organisms/Menu/White" transform="translate(274.614679, 72.454128)">
                    <g id="Atoms/Icons/Facebook-Copy" transform="translate(1419.871560, 10.623853)">
                        <path d="M20.7362235,43.0592108 C33.9786089,43.0592108 41.2240217,32.0907705 41.2240217,22.5714127 C41.2240217,22.2593026 41.2240217,21.9471925 41.2017281,21.6350824 C42.6062235,20.6095778 43.8323703,19.3388439 44.8132878,17.9120549 C43.5202602,18.4693943 42.1157648,18.8706787 40.6666823,19.0267338 C42.160352,18.1349907 43.2973245,16.7304952 43.8323703,15.0584769 C42.4501685,15.8833393 40.889618,16.4852659 39.2621868,16.797376 C37.9468657,15.3928806 36.0742052,14.523431 34.0009024,14.523431 C30.010352,14.523431 26.8000767,17.7559998 26.8000767,21.7242567 C26.8000767,22.2815962 26.8669575,22.8389356 26.9784254,23.3739815 C21.0037465,23.0618714 15.6755813,20.2082934 12.1309024,15.8387521 C11.5066823,16.9088439 11.149985,18.1349907 11.149985,19.4726053 C11.149985,21.9694861 12.420719,24.1765503 14.3602602,25.4695778 C13.1787006,25.4249907 12.0640217,25.090587 11.1053979,24.5555411 L11.1053979,24.6447154 L11.1053979,24.6447154 C11.1053979,28.1448072 13.579985,31.0429723 16.8794345,31.7117797 C16.2775079,31.8678347 15.6309942,31.957009 14.9844804,31.957009 C14.5163153,31.957009 14.0704437,31.9124219 13.6245722,31.8455411 C14.5386089,34.6991191 17.1915446,36.7724219 20.3572327,36.8393026 C17.8826456,38.7788439 14.7838382,39.9158163 11.4175079,39.9158163 C10.8155813,39.9158163 10.2582419,39.8935228 9.67860886,39.826642 C12.8665905,41.8776512 16.6564988,43.0592108 20.7362235,43.0592108 Z" id="icon_twitter"></path>
                    </g>
                </g>
            </g>
        </g>
    </g>
</svg>