<?xml version="1.0" encoding="UTF-8"?>
<svg width="30px" height="30px" viewBox="0 0 30 30" version="1.1" xmlns="http://www.w3.org/2000/svg" xmlns:xlink="http://www.w3.org/1999/xlink">
    <title>Atoms/Icons/Facebook</title>
    <g id="ðŸŽ-Symbols" stroke="none" stroke-width="1" fill="none" fill-rule="evenodd">
        <g id="Organisms/Footer/4K" transform="translate(-1638.000000, -1411.000000)" fill="#FFFFFF">
            <g id="Organisms/Footer-2" transform="translate(0.000000, 1316.000000)">
                <g id="Organisms/Menu/White" transform="translate(274.614679, 72.454128)">
                    <g id="Atoms/Icons/Facebook" transform="translate(1351.876147, 10.623853)">
                        <path d="M27.4476512,41.2757246 L27.4476512,30.2218255 L23.7320549,30.2218255 L23.7320549,25.9117338 L27.4476512,25.9117338 L27.4476512,22.7348989 C27.4476512,19.0564586 29.714165,17.0500365 33.0024677,17.0500365 C34.5630182,17.0500365 35.9192108,17.1615044 36.3093484,17.2172384 L36.3093484,21.0628806 L34.0428347,21.0814586 C32.2407705,21.0814586 31.9063668,21.9174677 31.9063668,23.1621925 L31.9063668,25.9117338 L36.1607246,25.9117338 L35.6033851,30.2218255 L31.9063668,30.2218255 L31.9063668,41.2757246 L35.3990273,41.2757246 C38.3529264,41.2757246 40.7494861,38.879165 40.7494861,35.9252659 L40.7494861,18.0904035 C40.7494861,15.1365044 38.3529264,12.7399448 35.3990273,12.7399448 L17.564165,12.7399448 C14.6102659,12.7399448 12.2137062,15.1365044 12.2137062,18.0904035 L12.2137062,35.9252659 C12.2137062,38.879165 14.6102659,41.2757246 17.564165,41.2757246 L27.4476512,41.2757246 Z" id="icon_fb"></path>
                    </g>
                </g>
            </g>
        </g>
    </g>
</svg>