<?xml version="1.0" encoding="UTF-8"?>
<svg width="27px" height="27px" viewBox="0 0 27 27" version="1.1" xmlns="http://www.w3.org/2000/svg" xmlns:xlink="http://www.w3.org/1999/xlink">
    <title>Atoms/Icons/Facebook</title>
    <g id="ðŸ Home" stroke="none" stroke-width="1" fill="none" fill-rule="evenodd">
        <g id="RES_Home_V1_00_Menu" transform="translate(-55.000000, -488.000000)" fill="#051C3D">
            <g id="Atoms/Icons/Facebook" transform="translate(45.000000, 477.000000)">
                <path d="M24.6238188,37.0292509 L24.6238188,27.1125842 L21.2904854,27.1125842 L21.2904854,23.2459175 L24.6238188,23.2459175 L24.6238188,20.3959175 C24.6238188,17.0959175 26.6571521,15.2959175 29.6071521,15.2959175 C31.0071521,15.2959175 32.2238188,15.3959175 32.5738188,15.4459175 L32.5738188,18.8959175 L30.5404854,18.9125842 C28.9238188,18.9125842 28.6238188,19.6625842 28.6238188,20.7792509 L28.6238188,23.2459175 L32.4404854,23.2459175 L31.9404854,27.1125842 L28.6238188,27.1125842 L28.6238188,37.0292509 L31.7571521,37.0292509 C34.4071521,37.0292509 36.5571521,34.8792509 36.5571521,32.2292509 L36.5571521,16.2292509 C36.5571521,13.5792509 34.4071521,11.4292509 31.7571521,11.4292509 L15.7571521,11.4292509 C13.1071521,11.4292509 10.9571521,13.5792509 10.9571521,16.2292509 L10.9571521,32.2292509 C10.9571521,34.8792509 13.1071521,37.0292509 15.7571521,37.0292509 L24.6238188,37.0292509 Z" id="icon_fb"></path>
            </g>
        </g>
    </g>
</svg>