<?xml version="1.0" encoding="UTF-8"?>
<svg width="34px" height="32px" viewBox="0 0 34 32" version="1.1" xmlns="http://www.w3.org/2000/svg" xmlns:xlink="http://www.w3.org/1999/xlink">
    <title>Atoms/Icons/Facebook Copy 3</title>
    <defs>
        <polygon id="path-1" points="0 0 33.6 0 33.6 32 0 32"></polygon>
    </defs>
    <g id="ðŸ Home" stroke="none" stroke-width="1" fill="none" fill-rule="evenodd">
        <g id="RES_Home_V1_00_Menu" transform="translate(-236.000000, -485.000000)">
            <g id="Group" transform="translate(228.000000, 477.000000)">
                <g id="Group-3" transform="translate(8.000000, 8.000000)">
                    <mask id="mask-2" fill="white">
                        <use xlink:href="#path-1"></use>
                    </mask>
                    <g id="Clip-2"></g>
                    <path d="M16.7989687,0 C7.52235727,0 0,7.3446728 0,16.406426 C0,23.6534115 4.81311234,29.801667 11.4897974,31.9719357 C12.3303131,32.1219915 12.6366114,31.6154276 12.6366114,31.1803667 C12.6366114,30.7916318 12.6221731,29.7593694 12.6139227,28.3907406 C7.94106814,29.3817125 6.95513812,26.1912664 6.95513812,26.1912664 C6.19093923,24.2959319 5.08950276,23.7923893 5.08950276,23.7923893 C3.5641989,22.7742261 5.20500921,22.7943678 5.20500921,22.7943678 C6.89119705,22.9111897 7.77812155,24.4852639 7.77812155,24.4852639 C9.27661142,26.9918991 11.7094659,26.2678048 12.6675506,25.8488574 C12.8201842,24.7883966 13.2533333,24.0653094 13.7339227,23.6554257 C10.0036832,23.2415136 6.08162063,21.8336084 6.08162063,15.5473822 C6.08162063,13.7567847 6.73650092,12.2924827 7.81112339,11.1454126 C7.63786372,10.7304934 7.0613628,9.06276025 7.97510129,6.80386802 C7.97510129,6.80386802 9.38593002,6.36276467 12.5953591,8.4857004 C13.9350276,8.12113554 15.3726703,7.93986019 16.8010313,7.93281059 C18.2273297,7.93986019 19.6649724,8.12113554 21.0067035,8.4857004 C24.21407,6.36276467 25.6218048,6.80386802 25.6218048,6.80386802 C26.5386372,9.06276025 25.9621363,10.7304934 25.7888766,11.1454126 C26.8655617,12.2924827 27.5163168,13.7567847 27.5163168,15.5473822 C27.5163168,21.8497218 23.5880663,23.2364782 19.8454512,23.6423336 C20.4487661,24.1488974 20.9860773,25.1499402 20.9860773,26.6807098 C20.9860773,28.8731344 20.9654512,30.6425832 20.9654512,31.1803667 C20.9654512,31.6194559 21.2676243,32.1300481 22.1205157,31.9699216 C28.7899816,29.7956245 33.6,23.6513973 33.6,16.406426 C33.6,7.3446728 26.0776427,0 16.7989687,0" id="Fill-1" fill="#051C3D" mask="url(#mask-2)"></path>
                </g>
            </g>
        </g>
    </g>
</svg>