<?xml version="1.0" encoding="UTF-8"?>
<svg width="33px" height="26px" viewBox="0 0 33 26" version="1.1" xmlns="http://www.w3.org/2000/svg" xmlns:xlink="http://www.w3.org/1999/xlink">
    <title>Atoms/Icons/Facebook Copy</title>
    <g id="ðŸ Home" stroke="none" stroke-width="1" fill="none" fill-rule="evenodd">
        <g id="RES_Home_V1_00_Menu" transform="translate(-114.000000, -490.000000)" fill="#051C3D">
            <g id="Atoms/Icons/Facebook-Copy" transform="translate(106.000000, 477.000000)">
                <path d="M18.6028672,38.6292509 C30.4828672,38.6292509 36.9828672,28.7892509 36.9828672,20.2492509 C36.9828672,19.9692509 36.9828672,19.6892509 36.9628672,19.4092509 C38.2228672,18.4892509 39.3228672,17.3492509 40.2028672,16.0692509 C39.0428672,16.5692509 37.7828672,16.9292509 36.4828672,17.0692509 C37.8228672,16.2692509 38.8428672,15.0092509 39.3228672,13.5092509 C38.0828672,14.2492509 36.6828672,14.7892509 35.2228672,15.0692509 C34.0428672,13.8092509 32.3628672,13.0292509 30.5028672,13.0292509 C26.9228672,13.0292509 24.0428672,15.9292509 24.0428672,19.4892509 C24.0428672,19.9892509 24.1028672,20.4892509 24.2028672,20.9692509 C18.8428672,20.6892509 14.0628672,18.1292509 10.8828672,14.2092509 C10.3228672,15.1692509 10.0028672,16.2692509 10.0028672,17.4692509 C10.0028672,19.7092509 11.1428672,21.6892509 12.8828672,22.8492509 C11.8228672,22.8092509 10.8228672,22.5092509 9.96286721,22.0292509 L9.96286721,22.1092509 L9.96286721,22.1092509 C9.96286721,25.2492509 12.1828672,27.8492509 15.1428672,28.4492509 C14.6028672,28.5892509 14.0228672,28.6692509 13.4428672,28.6692509 C13.0228672,28.6692509 12.6228672,28.6292509 12.2228672,28.5692509 C13.0428672,31.1292509 15.4228672,32.9892509 18.2628672,33.0492509 C16.0428672,34.7892509 13.2628672,35.8092509 10.2428672,35.8092509 C9.70286721,35.8092509 9.20286721,35.7892509 8.68286721,35.7292509 C11.5428672,37.5692509 14.9428672,38.6292509 18.6028672,38.6292509 Z" id="icon_twitter"></path>
            </g>
        </g>
    </g>
</svg>